Coordinates
version=1
nRows=8
nColumns=40
inDegrees=yes

Units are S.I. units (second, meters, Newtons, ...)
Angles are in degrees.

endheader
time	pelvis_tilt	pelvis_list	pelvis_rotation	pelvis_tx	pelvis_ty	pelvis_tz	hip_flexion_r	hip_adduction_r	hip_rotation_r	knee_angle_r	knee_angle_r_beta	ankle_angle_r	subtalar_angle_r	mtp_angle_r	hip_flexion_l	hip_adduction_l	hip_rotation_l	knee_angle_l	knee_angle_l_beta	ankle_angle_l	subtalar_angle_l	mtp_angle_l	lumbar_extension	lumbar_bending	lumbar_rotation	arm_flex_r	arm_add_r	arm_rot_r	elbow_flex_r	pro_sup_r	wrist_flex_r	wrist_dev_r	arm_flex_l	arm_add_l	arm_rot_l	elbow_flex_l	pro_sup_l	wrist_flex_l	wrist_dev_l
      2.09000000	     -1.01391477	      0.00368918	      9.35160742	      0.12082346	      0.88028032	     -1.45589856	     28.62430155	     -6.37339625	    -22.96889676	    -18.46080022	     -0.32220175	      5.04710622	      0.81611527	      5.90597990	     -2.29638729	      2.05307471	      9.21446292	    -28.22380133	     -0.49259826	     12.81739824	     -0.75893551	     -9.33821247	     -4.93320834	     -1.61854847	    -12.95737221	     -9.39180608	     -6.99756121	    -18.21939872	     21.44979673	     89.95437384	      0.00000000	      0.00000000	      8.34112790	     16.10856687	     19.04307369	     59.93762363	     89.95437384	      0.00000000	      0.00000000
      2.10000000	     -1.17561606	      0.16427895	      9.43185355	      0.13155603	      0.87928603	     -1.45538558	     28.95685057	     -6.45671693	    -22.61585358	    -18.61508799	     -0.32489458	      4.92334808	      0.83694339	      5.78920384	     -2.66465888	      2.08673113	      9.00751924	    -28.62639735	     -0.49962489	     12.50090365	     -0.74163814	     -9.16920411	     -4.67694471	     -1.70937692	    -12.95719447	     -9.78185653	     -7.04977718	    -18.17685129	     21.54280011	     89.95437384	      0.00000000	      0.00000000	      8.38763617	     16.08568528	     19.01194111	     60.14154664	     89.95437384	      0.00000000	      0.00000000
      2.11000000	     -1.33279004	      0.32614178	      9.47659159	      0.14262825	      0.87832348	     -1.45489764	     29.10789206	     -6.49337029	    -22.25577211	    -18.78851590	     -0.32792146	      4.84605131	      0.85595065	      5.66736813	     -3.02452742	      2.10433013	      8.72984754	    -29.06686967	     -0.50731258	     12.15666653	     -0.72934396	     -9.00270661	     -4.37393372	     -1.78953908	    -12.94964336	    -10.13916992	     -7.11686774	    -18.15124721	     21.58204710	     89.95437384	      0.00000000	      0.00000000	      8.31614861	     16.03933842	     18.96458536	     60.30473958	     89.95437384	      0.00000000	      0.00000000
      2.12000000	     -1.12201554	      0.25331320	      9.77397211	      0.15421987	      0.87803273	     -1.45449098	     28.44848617	     -6.18726041	    -22.08239395	    -18.63897403	     -0.32531147	      5.54216923	      0.77157947	      5.51227755	     -3.77176261	      2.40390549	      7.82067991	    -29.43558376	     -0.51374785	     11.43972628	     -0.68208624	     -8.90186328	     -4.39722627	     -1.57071411	    -13.26607480	     -9.97955025	     -7.19212126	    -18.33288058	     20.68467315	     89.95437384	      0.00000000	      0.00000000	      8.04655308	     16.09759927	     18.85614128	     60.55760456	     89.95437384	      0.00000000	      0.00000000
      2.13000000	     -0.82058413	      0.28578482	      9.93297195	      0.16606334	      0.87769308	     -1.45408784	     27.96211855	     -6.08067913	    -22.11932338	    -19.40196116	     -0.33862810	      5.39797074	      0.10787925	      5.46321403	     -4.59763895	      2.64682646	      7.39145440	    -29.88584756	     -0.52160644	     10.83981878	     -0.42370529	     -8.72773864	     -4.52803901	     -1.40242688	    -13.41196525	    -10.18086144	     -7.26848112	    -18.38746877	     20.55419728	     89.95437384	      0.00000000	      0.00000000	      7.79754739	     16.00088004	     18.93817869	     60.71996371	     89.95437384	      0.00000000	      0.00000000
      2.14000000	     -0.99418038	      0.45094061	      9.93496793	      0.17822220	      0.87664630	     -1.45330612	     27.80619571	     -6.04249903	    -21.67134380	    -19.98151265	     -0.34874319	      5.11172552	      0.02063218	      5.35368823	     -4.91488260	      2.66157812	      7.05123119	    -30.43917893	     -0.53126389	     10.41927034	     -0.36862323	     -8.52613076	     -4.07366466	     -1.51710674	    -13.31180399	    -10.67208910	     -7.31186749	    -18.33736556	     20.71468872	     89.95437384	      0.00000000	      0.00000000	      7.45556682	     15.89848726	     18.90408643	     60.74445177	     89.95437384	      0.00000000	      0.00000000
      2.15000000	     -0.39669770	      0.36575928	     10.11144646	      0.19044710	      0.87685067	     -1.45274855	     26.79004359	     -5.50200854	    -21.01179775	    -20.66916908	     -0.36074505	      4.14071455	     -3.44468782	      5.95797646	     -6.07565648	      2.85388043	      5.75585798	    -30.79602930	     -0.53749211	      9.44057157	      1.37978258	     -8.48219530	     -4.49219310	     -1.15996694	    -13.53529742	    -10.57233848	     -7.40272005	    -18.56477594	     20.23993341	     89.95437384	      0.00000000	      0.00000000	      7.02562611	     15.84018774	     18.93343180	     60.90103020	     89.95437384	      0.00000000	      0.00000000
      2.16000000	     -0.43889201	      0.39879666	     10.04286861	      0.20250218	      0.87596869	     -1.45181773	     26.70256846	     -5.39973968	    -20.83230988	    -21.64014238	     -0.37769174	      3.15190977	     -3.68737377	      5.96438110	     -6.35280823	      2.95054399	      5.20080943	    -31.57353559	     -0.55106215	      8.55645167	      1.55552879	     -8.22585661	     -4.20498116	     -1.06631065	    -13.37620236	    -10.85767038	     -7.49516307	    -18.46033900	     20.26117945	     89.95437384	      0.00000000	      0.00000000	      6.61972592	     15.70698961	     18.88620026	     60.88128460	     89.95437384	      0.00000000	      0.00000000
